<svg width="218" height="89" viewBox="0 0 218 89" fill="none" xmlns="http://www.w3.org/2000/svg">
<g filter="url(#filter0_d)">
<rect x="17" y="11" width="184" height="55" rx="5" fill="black"/>
<rect x="16" y="10" width="186" height="57" rx="6" stroke="#A4A4A4" stroke-opacity="0.5" stroke-width="2"/>
</g>
<path d="M77.34 38.96C75.9333 38.96 74.7433 39.4333 73.77 40.38C72.7767 41.3533 72.28 42.56 72.28 44C72.28 45.44 72.7767 46.6433 73.77 47.61C74.7433 48.5633 75.9333 49.04 77.34 49.04C78.44 49.04 79.36 48.7267 80.1 48.1C80.8133 47.4933 81.2867 46.66 81.52 45.6H78.9C78.6 45.6 78.3433 45.49 78.13 45.27C77.91 45.0567 77.8 44.8 77.8 44.5C77.8 44.2 77.91 43.94 78.13 43.72C78.3433 43.5067 78.6 43.4 78.9 43.4H82.88C83.18 43.4 83.44 43.5067 83.66 43.72C83.8733 43.94 83.98 44.2 83.98 44.5V44.6C83.96 46.52 83.33 48.1033 82.09 49.35C80.8367 50.61 79.2533 51.24 77.34 51.24C75.3067 51.24 73.5733 50.5467 72.14 49.16C70.6867 47.76 69.96 46.04 69.96 44C69.96 41.96 70.6867 40.2367 72.14 38.83C73.5733 37.45 75.3067 36.76 77.34 36.76C79.58 36.76 81.4467 37.6 82.94 39.28C83.1533 39.54 83.26 39.8 83.26 40.06C83.26 40.3667 83.15 40.63 82.93 40.85C82.7167 41.07 82.4533 41.18 82.14 41.18C81.7667 41.18 81.4733 41.04 81.26 40.76C80.7933 40.1933 80.2233 39.7533 79.55 39.44C78.8567 39.12 78.12 38.96 77.34 38.96ZM87.7803 46.32C87.7803 47.1667 88.067 47.8733 88.6403 48.44C89.2136 49 89.927 49.28 90.7803 49.28C91.6336 49.28 92.347 49 92.9203 48.44C93.4936 47.8733 93.7803 47.1667 93.7803 46.32C93.7803 45.4733 93.4936 44.7667 92.9203 44.2C92.347 43.64 91.6336 43.36 90.7803 43.36C89.927 43.36 89.2136 43.64 88.6403 44.2C88.067 44.7667 87.7803 45.4733 87.7803 46.32ZM85.6603 46.32C85.6603 44.9333 86.1536 43.7667 87.1403 42.82C88.127 41.8733 89.3403 41.4 90.7803 41.4C92.2203 41.4 93.4336 41.8733 94.4203 42.82C95.407 43.7667 95.9003 44.9333 95.9003 46.32C95.9003 47.7067 95.407 48.8733 94.4203 49.82C93.4336 50.7667 92.2203 51.24 90.7803 51.24C89.3403 51.24 88.127 50.7667 87.1403 49.82C86.1536 48.8733 85.6603 47.7067 85.6603 46.32ZM99.6944 46.32C99.6944 47.1667 99.981 47.8733 100.554 48.44C101.128 49 101.841 49.28 102.694 49.28C103.548 49.28 104.261 49 104.834 48.44C105.408 47.8733 105.694 47.1667 105.694 46.32C105.694 45.4733 105.408 44.7667 104.834 44.2C104.261 43.64 103.548 43.36 102.694 43.36C101.841 43.36 101.128 43.64 100.554 44.2C99.981 44.7667 99.6944 45.4733 99.6944 46.32ZM97.5744 46.32C97.5744 44.9333 98.0677 43.7667 99.0544 42.82C100.041 41.8733 101.254 41.4 102.694 41.4C104.134 41.4 105.348 41.8733 106.334 42.82C107.321 43.7667 107.814 44.9333 107.814 46.32C107.814 47.7067 107.321 48.8733 106.334 49.82C105.348 50.7667 104.134 51.24 102.694 51.24C101.254 51.24 100.041 50.7667 99.0544 49.82C98.0677 48.8733 97.5744 47.7067 97.5744 46.32ZM110.188 54.12C110.188 53.84 110.285 53.6033 110.478 53.41C110.665 53.2167 110.888 53.12 111.148 53.12C111.482 53.12 111.782 53.3 112.048 53.66C112.635 54.4067 113.442 54.78 114.468 54.78C115.482 54.78 116.268 54.4933 116.828 53.92C117.455 53.2733 117.768 52.2867 117.768 50.96V49.68C116.935 50.72 115.775 51.24 114.288 51.24C112.955 51.24 111.822 50.7667 110.888 49.82C109.955 48.8733 109.488 47.7067 109.488 46.32C109.488 44.9333 109.955 43.7667 110.888 42.82C111.822 41.8733 112.955 41.4 114.288 41.4C115.775 41.4 116.935 41.92 117.768 42.96V42.46C117.768 42.1667 117.872 41.9167 118.078 41.71C118.292 41.5033 118.542 41.4 118.828 41.4C119.122 41.4 119.372 41.5033 119.578 41.71C119.785 41.9167 119.888 42.1667 119.888 42.46V50.74C119.888 52.82 119.365 54.3567 118.318 55.35C117.405 56.21 116.122 56.64 114.468 56.64C112.895 56.64 111.582 56.0467 110.528 54.86C110.302 54.58 110.188 54.3333 110.188 54.12ZM117.708 46.32C117.708 45.4667 117.408 44.74 116.808 44.14C116.215 43.5533 115.495 43.26 114.648 43.26C113.802 43.26 113.082 43.5533 112.488 44.14C111.888 44.74 111.588 45.4667 111.588 46.32C111.588 47.1733 111.888 47.8967 112.488 48.49C113.082 49.0833 113.802 49.38 114.648 49.38C115.495 49.38 116.215 49.0833 116.808 48.49C117.408 47.8967 117.708 47.1733 117.708 46.32ZM122.884 36.82C122.884 36.5267 122.987 36.2767 123.194 36.07C123.407 35.8633 123.657 35.76 123.944 35.76C124.237 35.76 124.487 35.8633 124.694 36.07C124.9 36.2767 125.004 36.5267 125.004 36.82V50.18C125.004 50.4667 124.9 50.7167 124.694 50.93C124.487 51.1367 124.237 51.24 123.944 51.24C123.657 51.24 123.407 51.1367 123.194 50.93C122.987 50.7167 122.884 50.4667 122.884 50.18V36.82ZM132.519 51.24C131.072 51.24 129.856 50.77 128.869 49.83C127.876 48.8833 127.379 47.7133 127.379 46.32C127.379 44.9467 127.869 43.78 128.849 42.82C129.822 41.8733 130.992 41.4 132.359 41.4C133.692 41.4 134.839 41.85 135.799 42.75C136.746 43.6433 137.259 44.7533 137.339 46.08C137.352 46.28 137.289 46.4567 137.149 46.61C137.002 46.79 136.806 46.88 136.559 46.88H129.539C129.666 47.6333 130.029 48.23 130.629 48.67C131.182 49.0767 131.826 49.28 132.559 49.28C133.499 49.28 134.286 48.9 134.919 48.14C135.126 47.8733 135.392 47.74 135.719 47.74C136.012 47.74 136.256 47.8367 136.449 48.03C136.642 48.2233 136.739 48.4667 136.739 48.76C136.739 49.02 136.652 49.2467 136.479 49.44C135.432 50.64 134.112 51.24 132.519 51.24ZM135.179 45.32C135.032 44.6733 134.699 44.18 134.179 43.84C133.692 43.52 133.092 43.36 132.379 43.36C131.806 43.36 131.269 43.53 130.769 43.87C130.229 44.23 129.859 44.7133 129.659 45.32H135.179ZM145.697 38.06C145.697 37.7667 145.8 37.5167 146.007 37.31C146.22 37.1033 146.47 37 146.757 37H149.197C150.683 37 151.88 37.4333 152.787 38.3C153.647 39.12 154.077 40.1533 154.077 41.4C154.077 42.6467 153.647 43.68 152.787 44.5C151.88 45.3667 150.683 45.8 149.197 45.8H148.017V50.08C148.017 50.4 147.903 50.6733 147.677 50.9C147.45 51.1267 147.177 51.24 146.857 51.24C146.537 51.24 146.263 51.1267 146.037 50.9C145.81 50.6733 145.697 50.4 145.697 50.08V38.06ZM148.017 43.68H149.137C149.91 43.68 150.537 43.48 151.017 43.08C151.51 42.6667 151.757 42.1067 151.757 41.4C151.757 40.6933 151.51 40.1333 151.017 39.72C150.537 39.32 149.91 39.12 149.137 39.12H148.017V43.68ZM156.204 36.82C156.204 36.5267 156.307 36.2767 156.514 36.07C156.727 35.8633 156.977 35.76 157.264 35.76C157.557 35.76 157.807 35.8633 158.014 36.07C158.221 36.2767 158.324 36.5267 158.324 36.82V50.18C158.324 50.4667 158.221 50.7167 158.014 50.93C157.807 51.1367 157.557 51.24 157.264 51.24C156.977 51.24 156.727 51.1367 156.514 50.93C156.307 50.7167 156.204 50.4667 156.204 50.18V36.82ZM168.979 42.46C168.979 42.1667 169.083 41.9167 169.289 41.71C169.503 41.5033 169.753 41.4 170.039 41.4C170.333 41.4 170.583 41.5033 170.789 41.71C170.996 41.9167 171.099 42.1667 171.099 42.46V50.18C171.099 50.4667 170.996 50.7167 170.789 50.93C170.583 51.1367 170.333 51.24 170.039 51.24C169.753 51.24 169.503 51.1367 169.289 50.93C169.083 50.7167 168.979 50.4667 168.979 50.18V49.68C168.146 50.72 166.986 51.24 165.499 51.24C164.166 51.24 163.033 50.7667 162.099 49.82C161.166 48.8733 160.699 47.7067 160.699 46.32C160.699 44.9333 161.166 43.7667 162.099 42.82C163.033 41.8733 164.166 41.4 165.499 41.4C166.986 41.4 168.146 41.92 168.979 42.96V42.46ZM168.919 46.32C168.919 45.4667 168.619 44.74 168.019 44.14C167.426 43.5533 166.706 43.26 165.859 43.26C165.013 43.26 164.293 43.5533 163.699 44.14C163.099 44.74 162.799 45.4667 162.799 46.32C162.799 47.1733 163.099 47.8967 163.699 48.49C164.293 49.0833 165.013 49.38 165.859 49.38C166.706 49.38 167.426 49.0833 168.019 48.49C168.619 47.8967 168.919 47.1733 168.919 46.32ZM173.315 42.46C173.315 42.16 173.411 41.9067 173.605 41.7C173.805 41.5 174.048 41.4 174.335 41.4C174.828 41.4 175.161 41.6333 175.335 42.1L177.575 48.22L179.915 42.2C180.135 41.6667 180.468 41.4 180.915 41.4C181.215 41.4 181.468 41.5 181.675 41.7C181.875 41.9067 181.975 42.16 181.975 42.46C181.975 42.5867 181.955 42.7 181.915 42.8L176.635 56.18C176.448 56.6467 176.108 56.88 175.615 56.88C175.315 56.88 175.068 56.78 174.875 56.58C174.675 56.3867 174.575 56.14 174.575 55.84C174.575 55.6733 174.608 55.5133 174.675 55.36L176.535 50.7L173.435 42.96C173.395 42.86 173.368 42.7767 173.355 42.71C173.328 42.6167 173.315 42.5333 173.315 42.46Z" fill="white"/>
<path d="M71.134 29.79H72.025C72.8243 29.79 73.4733 29.5553 73.972 29.086C74.4853 28.602 74.742 27.9567 74.742 27.15C74.742 26.3433 74.4853 25.698 73.972 25.214C73.4733 24.7447 72.8243 24.51 72.025 24.51H71.134V29.79ZM70.408 31C70.254 31 70.1238 30.9468 70.0175 30.8405C69.9112 30.7342 69.858 30.604 69.858 30.45V23.85C69.858 23.6997 69.9093 23.5713 70.012 23.465C70.1183 23.355 70.2467 23.3 70.397 23.3H72.014C73.1507 23.3 74.0967 23.6502 74.852 24.3505C75.6293 25.0728 76.018 26.006 76.018 27.15C76.018 28.294 75.6293 29.2272 74.852 29.9495C74.0967 30.6498 73.1507 31 72.014 31H70.408ZM78.169 28.426C78.169 28.8917 78.3267 29.2803 78.642 29.592C78.9573 29.9 79.3497 30.054 79.819 30.054C80.2883 30.054 80.6807 29.9 80.996 29.592C81.3113 29.2803 81.469 28.8917 81.469 28.426C81.469 27.9603 81.3113 27.5717 80.996 27.26C80.6807 26.952 80.2883 26.798 79.819 26.798C79.3497 26.798 78.9573 26.952 78.642 27.26C78.3267 27.5717 78.169 27.9603 78.169 28.426ZM77.003 28.426C77.003 27.6633 77.2743 27.0217 77.817 26.501C78.3597 25.9803 79.027 25.72 79.819 25.72C80.611 25.72 81.2783 25.9803 81.821 26.501C82.3637 27.0217 82.635 27.6633 82.635 28.426C82.635 29.1887 82.3637 29.8303 81.821 30.351C81.2783 30.8717 80.611 31.132 79.819 31.132C79.027 31.132 78.3597 30.8717 77.817 30.351C77.2743 29.8303 77.003 29.1887 77.003 28.426ZM86.0308 30.912C85.9684 31.0587 85.8658 31.132 85.7228 31.132C85.5908 31.132 85.4918 31.066 85.4258 30.934L83.4348 26.49C83.4054 26.4313 83.3908 26.358 83.3908 26.27C83.3908 26.116 83.4421 25.9858 83.5448 25.8795C83.6474 25.7732 83.7758 25.72 83.9298 25.72C84.0398 25.72 84.1424 25.7493 84.2378 25.808C84.3294 25.8667 84.3954 25.9437 84.4358 26.039L85.7228 29.163L87.0428 25.951C87.1014 25.797 87.2041 25.72 87.3508 25.72C87.4974 25.72 87.6001 25.797 87.6588 25.951L88.9788 29.163L90.2658 26.039C90.3061 25.9437 90.3721 25.8667 90.4638 25.808C90.5591 25.7493 90.6618 25.72 90.7718 25.72C90.9258 25.72 91.0541 25.7732 91.1568 25.8795C91.2594 25.9858 91.3108 26.116 91.3108 26.27C91.3108 26.358 91.2961 26.4313 91.2668 26.49L89.2758 30.934C89.2098 31.066 89.1108 31.132 88.9788 31.132C88.8358 31.132 88.7331 31.0587 88.6708 30.912L87.3508 27.645L86.0308 30.912ZM93.5813 26.336C93.97 25.9253 94.4503 25.72 95.0223 25.72C95.5503 25.72 95.9921 25.8923 96.3478 26.237C96.7181 26.6 96.9033 27.0657 96.9033 27.634V30.549C96.9033 30.7067 96.8465 30.8442 96.7328 30.9615C96.6191 31.0752 96.4816 31.132 96.3203 31.132C96.1626 31.132 96.0251 31.0752 95.9078 30.9615C95.7941 30.8442 95.7373 30.7067 95.7373 30.549V27.876C95.7373 27.5497 95.6328 27.2783 95.4238 27.062C95.2185 26.8493 94.9636 26.743 94.6593 26.743C94.3586 26.743 94.1056 26.8475 93.9003 27.0565C93.6876 27.2728 93.5813 27.5387 93.5813 27.854V30.549C93.5813 30.7067 93.5245 30.8442 93.4108 30.9615C93.2971 31.0752 93.1596 31.132 92.9983 31.132C92.8406 31.132 92.7031 31.0752 92.5858 30.9615C92.4721 30.8442 92.4153 30.7067 92.4153 30.549V26.303C92.4153 26.1417 92.4721 26.0042 92.5858 25.8905C92.7031 25.7768 92.8406 25.72 92.9983 25.72C93.1596 25.72 93.2971 25.7768 93.4108 25.8905C93.5245 26.0042 93.5813 26.1417 93.5813 26.303V26.336ZM98.4964 23.201C98.4964 23.0397 98.5532 22.9022 98.6669 22.7885C98.7842 22.6748 98.9217 22.618 99.0794 22.618C99.2407 22.618 99.3782 22.6748 99.4919 22.7885C99.6056 22.9022 99.6624 23.0397 99.6624 23.201V30.549C99.6624 30.7067 99.6056 30.8442 99.4919 30.9615C99.3782 31.0752 99.2407 31.132 99.0794 31.132C98.9217 31.132 98.7842 31.0752 98.6669 30.9615C98.5532 30.8442 98.4964 30.7067 98.4964 30.549V23.201ZM102.135 28.426C102.135 28.8917 102.293 29.2803 102.608 29.592C102.923 29.9 103.316 30.054 103.785 30.054C104.254 30.054 104.647 29.9 104.962 29.592C105.277 29.2803 105.435 28.8917 105.435 28.426C105.435 27.9603 105.277 27.5717 104.962 27.26C104.647 26.952 104.254 26.798 103.785 26.798C103.316 26.798 102.923 26.952 102.608 27.26C102.293 27.5717 102.135 27.9603 102.135 28.426ZM100.969 28.426C100.969 27.6633 101.24 27.0217 101.783 26.501C102.326 25.9803 102.993 25.72 103.785 25.72C104.577 25.72 105.244 25.9803 105.787 26.501C106.33 27.0217 106.601 27.6633 106.601 28.426C106.601 29.1887 106.33 29.8303 105.787 30.351C105.244 30.8717 104.577 31.132 103.785 31.132C102.993 31.132 102.326 30.8717 101.783 30.351C101.24 29.8303 100.969 29.1887 100.969 28.426ZM112.076 26.303C112.076 26.1417 112.132 26.0042 112.246 25.8905C112.363 25.7768 112.501 25.72 112.659 25.72C112.82 25.72 112.957 25.7768 113.071 25.8905C113.185 26.0042 113.242 26.1417 113.242 26.303V30.549C113.242 30.7067 113.185 30.8442 113.071 30.9615C112.957 31.0752 112.82 31.132 112.659 31.132C112.501 31.132 112.363 31.0752 112.246 30.9615C112.132 30.8442 112.076 30.7067 112.076 30.549V30.274C111.617 30.846 110.979 31.132 110.162 31.132C109.428 31.132 108.805 30.8717 108.292 30.351C107.778 29.8303 107.522 29.1887 107.522 28.426C107.522 27.6633 107.778 27.0217 108.292 26.501C108.805 25.9803 109.428 25.72 110.162 25.72C110.979 25.72 111.617 26.006 112.076 26.578V26.303ZM112.043 28.426C112.043 27.9567 111.878 27.557 111.548 27.227C111.221 26.9043 110.825 26.743 110.36 26.743C109.894 26.743 109.498 26.9043 109.172 27.227C108.842 27.557 108.677 27.9567 108.677 28.426C108.677 28.8953 108.842 29.2932 109.172 29.6195C109.498 29.9458 109.894 30.109 110.36 30.109C110.825 30.109 111.221 29.9458 111.548 29.6195C111.878 29.2932 112.043 28.8953 112.043 28.426ZM120.224 30.549C120.224 30.7067 120.167 30.8442 120.053 30.9615C119.94 31.0752 119.802 31.132 119.641 31.132C119.483 31.132 119.346 31.0752 119.228 30.9615C119.115 30.8442 119.058 30.7067 119.058 30.549V30.274C118.6 30.846 117.962 31.132 117.144 31.132C116.411 31.132 115.787 30.8717 115.274 30.351C114.761 29.8303 114.504 29.1887 114.504 28.426C114.504 27.6633 114.761 27.0217 115.274 26.501C115.787 25.9803 116.411 25.72 117.144 25.72C117.962 25.72 118.6 26.006 119.058 26.578V23.201C119.058 23.0397 119.115 22.9022 119.228 22.7885C119.346 22.6748 119.483 22.618 119.641 22.618C119.802 22.618 119.94 22.6748 120.053 22.7885C120.167 22.9022 120.224 23.0397 120.224 23.201V30.549ZM119.025 28.426C119.025 27.9567 118.86 27.557 118.53 27.227C118.204 26.9043 117.808 26.743 117.342 26.743C116.876 26.743 116.48 26.9043 116.154 27.227C115.824 27.557 115.659 27.9567 115.659 28.426C115.659 28.8953 115.824 29.2932 116.154 29.6195C116.48 29.9458 116.876 30.109 117.342 30.109C117.808 30.109 118.204 29.9458 118.53 29.6195C118.86 29.2932 119.025 28.8953 119.025 28.426ZM127.864 23.168C128.022 23.168 128.132 23.2487 128.194 23.41L131.043 30.241C131.095 30.3547 131.12 30.45 131.12 30.527C131.12 30.6957 131.062 30.8387 130.944 30.956C130.831 31.0733 130.695 31.132 130.537 31.132C130.266 31.132 130.075 30.9963 129.965 30.725L129.371 29.251H126.346L125.763 30.725C125.653 30.9963 125.463 31.132 125.191 31.132C125.034 31.132 124.898 31.0733 124.784 30.956C124.667 30.8387 124.608 30.6957 124.608 30.527C124.608 30.45 124.634 30.3547 124.685 30.241L127.534 23.41C127.597 23.2487 127.707 23.168 127.864 23.168ZM126.775 28.195H128.953L127.864 25.467L126.775 28.195ZM132.204 26.303C132.204 26.1417 132.261 26.0042 132.375 25.8905C132.492 25.7768 132.63 25.72 132.787 25.72C132.949 25.72 133.086 25.7768 133.2 25.8905C133.314 26.0042 133.37 26.1417 133.37 26.303V26.578C133.829 26.006 134.467 25.72 135.284 25.72C136.018 25.72 136.641 25.9803 137.154 26.501C137.668 27.0217 137.924 27.6633 137.924 28.426C137.924 29.1887 137.668 29.8303 137.154 30.351C136.641 30.8717 136.018 31.132 135.284 31.132C134.467 31.132 133.829 30.846 133.37 30.274V33.519C133.37 33.6767 133.314 33.8142 133.2 33.9315C133.086 34.0452 132.949 34.102 132.787 34.102C132.63 34.102 132.492 34.0452 132.375 33.9315C132.261 33.8142 132.204 33.6767 132.204 33.519V26.303ZM133.403 28.426C133.403 28.8953 133.568 29.2932 133.898 29.6195C134.225 29.9458 134.621 30.109 135.086 30.109C135.552 30.109 135.948 29.9458 136.274 29.6195C136.604 29.2932 136.769 28.8953 136.769 28.426C136.769 27.9567 136.604 27.557 136.274 27.227C135.948 26.9043 135.552 26.743 135.086 26.743C134.621 26.743 134.225 26.9043 133.898 27.227C133.568 27.557 133.403 27.9567 133.403 28.426ZM139.187 26.303C139.187 26.1417 139.244 26.0042 139.357 25.8905C139.475 25.7768 139.612 25.72 139.77 25.72C139.931 25.72 140.069 25.7768 140.182 25.8905C140.296 26.0042 140.353 26.1417 140.353 26.303V26.578C140.811 26.006 141.449 25.72 142.267 25.72C143 25.72 143.623 25.9803 144.137 26.501C144.65 27.0217 144.907 27.6633 144.907 28.426C144.907 29.1887 144.65 29.8303 144.137 30.351C143.623 30.8717 143 31.132 142.267 31.132C141.449 31.132 140.811 30.846 140.353 30.274V33.519C140.353 33.6767 140.296 33.8142 140.182 33.9315C140.069 34.0452 139.931 34.102 139.77 34.102C139.612 34.102 139.475 34.0452 139.357 33.9315C139.244 33.8142 139.187 33.6767 139.187 33.519V26.303ZM140.386 28.426C140.386 28.8953 140.551 29.2932 140.881 29.6195C141.207 29.9458 141.603 30.109 142.069 30.109C142.534 30.109 142.93 29.9458 143.257 29.6195C143.587 29.2932 143.752 28.8953 143.752 28.426C143.752 27.9567 143.587 27.557 143.257 27.227C142.93 26.9043 142.534 26.743 142.069 26.743C141.603 26.743 141.207 26.9043 140.881 27.227C140.551 27.557 140.386 27.9567 140.386 28.426Z" fill="white"/>
<path d="M49.7653 34.1341L35 24.7832V51.3813L50.2828 41.7025L56 38.0823L49.7653 34.1341Z" fill="#00D7DF"/>
<path d="M56 38.1348L49.9884 41.8817L46 38.1366L49.8256 34.2822L56 38.1348Z" fill="#FDBF00"/>
<path d="M50 41.9205L35 51.3811V49.2119L45.9498 38.082L50 41.9205Z" fill="#FF0059"/>
<path d="M35 24.7832L50 34.1333L46.073 38.0823L35 27.0931V24.7832Z" fill="#9BDD39"/>
<path d="M35 27.6328L46 38.4885L35 49.4813V27.6328Z" fill="#00D7DF"/>
<path d="M50 41.9205L35 51.3811V49.2119L45.9498 38.082L50 41.9205Z" fill="#D20041"/>
<path d="M56 38.082H46L49.9896 41.8817L56 38.082Z" fill="#FF9100"/>
<path d="M35 49.4812L46 38.082H35V49.4812Z" fill="#00AADF"/>
<defs>
<filter id="filter0_d" x="0" y="0" width="218" height="89" filterUnits="userSpaceOnUse" color-interpolation-filters="sRGB">
<feFlood flood-opacity="0" result="BackgroundImageFix"/>
<feColorMatrix in="SourceAlpha" type="matrix" values="0 0 0 0 0 0 0 0 0 0 0 0 0 0 0 0 0 0 127 0"/>
<feOffset dy="6"/>
<feGaussianBlur stdDeviation="7.5"/>
<feColorMatrix type="matrix" values="0 0 0 0 0.282353 0 0 0 0 0.282353 0 0 0 0 0.282353 0 0 0 1 0"/>
<feBlend mode="normal" in2="BackgroundImageFix" result="effect1_dropShadow"/>
<feBlend mode="normal" in="SourceGraphic" in2="effect1_dropShadow" result="shape"/>
</filter>
</defs>
</svg>
