<svg width="214" height="89" viewBox="0 0 214 89" fill="none" xmlns="http://www.w3.org/2000/svg">
<g filter="url(#filter0_d)">
<rect x="17" y="11" width="180" height="55" rx="5" fill="black"/>
<rect x="16" y="10" width="182" height="57" rx="6" stroke="#A4A4A4" stroke-opacity="0.5" stroke-width="2"/>
</g>
<path d="M73.134 29.79H74.025C74.8243 29.79 75.4733 29.5553 75.972 29.086C76.4853 28.602 76.742 27.9567 76.742 27.15C76.742 26.3433 76.4853 25.698 75.972 25.214C75.4733 24.7447 74.8243 24.51 74.025 24.51H73.134V29.79ZM72.408 31C72.254 31 72.1238 30.9468 72.0175 30.8405C71.9112 30.7342 71.858 30.604 71.858 30.45V23.85C71.858 23.6997 71.9093 23.5713 72.012 23.465C72.1183 23.355 72.2467 23.3 72.397 23.3H74.014C75.1507 23.3 76.0967 23.6502 76.852 24.3505C77.6293 25.0728 78.018 26.006 78.018 27.15C78.018 28.294 77.6293 29.2272 76.852 29.9495C76.0967 30.6498 75.1507 31 74.014 31H72.408ZM80.169 28.426C80.169 28.8917 80.3267 29.2803 80.642 29.592C80.9573 29.9 81.3497 30.054 81.819 30.054C82.2883 30.054 82.6807 29.9 82.996 29.592C83.3113 29.2803 83.469 28.8917 83.469 28.426C83.469 27.9603 83.3113 27.5717 82.996 27.26C82.6807 26.952 82.2883 26.798 81.819 26.798C81.3497 26.798 80.9573 26.952 80.642 27.26C80.3267 27.5717 80.169 27.9603 80.169 28.426ZM79.003 28.426C79.003 27.6633 79.2743 27.0217 79.817 26.501C80.3597 25.9803 81.027 25.72 81.819 25.72C82.611 25.72 83.2783 25.9803 83.821 26.501C84.3637 27.0217 84.635 27.6633 84.635 28.426C84.635 29.1887 84.3637 29.8303 83.821 30.351C83.2783 30.8717 82.611 31.132 81.819 31.132C81.027 31.132 80.3597 30.8717 79.817 30.351C79.2743 29.8303 79.003 29.1887 79.003 28.426ZM88.0308 30.912C87.9684 31.0587 87.8658 31.132 87.7228 31.132C87.5908 31.132 87.4918 31.066 87.4258 30.934L85.4348 26.49C85.4054 26.4313 85.3908 26.358 85.3908 26.27C85.3908 26.116 85.4421 25.9858 85.5448 25.8795C85.6474 25.7732 85.7758 25.72 85.9298 25.72C86.0398 25.72 86.1424 25.7493 86.2378 25.808C86.3294 25.8667 86.3954 25.9437 86.4358 26.039L87.7228 29.163L89.0428 25.951C89.1014 25.797 89.2041 25.72 89.3508 25.72C89.4974 25.72 89.6001 25.797 89.6588 25.951L90.9788 29.163L92.2658 26.039C92.3061 25.9437 92.3721 25.8667 92.4638 25.808C92.5591 25.7493 92.6618 25.72 92.7718 25.72C92.9258 25.72 93.0541 25.7732 93.1568 25.8795C93.2594 25.9858 93.3108 26.116 93.3108 26.27C93.3108 26.358 93.2961 26.4313 93.2668 26.49L91.2758 30.934C91.2098 31.066 91.1108 31.132 90.9788 31.132C90.8358 31.132 90.7331 31.0587 90.6708 30.912L89.3508 27.645L88.0308 30.912ZM95.5813 26.336C95.97 25.9253 96.4503 25.72 97.0223 25.72C97.5503 25.72 97.9921 25.8923 98.3478 26.237C98.7181 26.6 98.9033 27.0657 98.9033 27.634V30.549C98.9033 30.7067 98.8465 30.8442 98.7328 30.9615C98.6191 31.0752 98.4816 31.132 98.3203 31.132C98.1626 31.132 98.0251 31.0752 97.9078 30.9615C97.7941 30.8442 97.7373 30.7067 97.7373 30.549V27.876C97.7373 27.5497 97.6328 27.2783 97.4238 27.062C97.2185 26.8493 96.9636 26.743 96.6593 26.743C96.3586 26.743 96.1056 26.8475 95.9003 27.0565C95.6876 27.2728 95.5813 27.5387 95.5813 27.854V30.549C95.5813 30.7067 95.5245 30.8442 95.4108 30.9615C95.2971 31.0752 95.1596 31.132 94.9983 31.132C94.8406 31.132 94.7031 31.0752 94.5858 30.9615C94.4721 30.8442 94.4153 30.7067 94.4153 30.549V26.303C94.4153 26.1417 94.4721 26.0042 94.5858 25.8905C94.7031 25.7768 94.8406 25.72 94.9983 25.72C95.1596 25.72 95.2971 25.7768 95.4108 25.8905C95.5245 26.0042 95.5813 26.1417 95.5813 26.303V26.336ZM100.496 23.201C100.496 23.0397 100.553 22.9022 100.667 22.7885C100.784 22.6748 100.922 22.618 101.079 22.618C101.241 22.618 101.378 22.6748 101.492 22.7885C101.606 22.9022 101.662 23.0397 101.662 23.201V30.549C101.662 30.7067 101.606 30.8442 101.492 30.9615C101.378 31.0752 101.241 31.132 101.079 31.132C100.922 31.132 100.784 31.0752 100.667 30.9615C100.553 30.8442 100.496 30.7067 100.496 30.549V23.201ZM104.135 28.426C104.135 28.8917 104.293 29.2803 104.608 29.592C104.923 29.9 105.316 30.054 105.785 30.054C106.254 30.054 106.647 29.9 106.962 29.592C107.277 29.2803 107.435 28.8917 107.435 28.426C107.435 27.9603 107.277 27.5717 106.962 27.26C106.647 26.952 106.254 26.798 105.785 26.798C105.316 26.798 104.923 26.952 104.608 27.26C104.293 27.5717 104.135 27.9603 104.135 28.426ZM102.969 28.426C102.969 27.6633 103.24 27.0217 103.783 26.501C104.326 25.9803 104.993 25.72 105.785 25.72C106.577 25.72 107.244 25.9803 107.787 26.501C108.33 27.0217 108.601 27.6633 108.601 28.426C108.601 29.1887 108.33 29.8303 107.787 30.351C107.244 30.8717 106.577 31.132 105.785 31.132C104.993 31.132 104.326 30.8717 103.783 30.351C103.24 29.8303 102.969 29.1887 102.969 28.426ZM114.076 26.303C114.076 26.1417 114.132 26.0042 114.246 25.8905C114.363 25.7768 114.501 25.72 114.659 25.72C114.82 25.72 114.957 25.7768 115.071 25.8905C115.185 26.0042 115.242 26.1417 115.242 26.303V30.549C115.242 30.7067 115.185 30.8442 115.071 30.9615C114.957 31.0752 114.82 31.132 114.659 31.132C114.501 31.132 114.363 31.0752 114.246 30.9615C114.132 30.8442 114.076 30.7067 114.076 30.549V30.274C113.617 30.846 112.979 31.132 112.162 31.132C111.428 31.132 110.805 30.8717 110.292 30.351C109.778 29.8303 109.522 29.1887 109.522 28.426C109.522 27.6633 109.778 27.0217 110.292 26.501C110.805 25.9803 111.428 25.72 112.162 25.72C112.979 25.72 113.617 26.006 114.076 26.578V26.303ZM114.043 28.426C114.043 27.9567 113.878 27.557 113.548 27.227C113.221 26.9043 112.825 26.743 112.36 26.743C111.894 26.743 111.498 26.9043 111.172 27.227C110.842 27.557 110.677 27.9567 110.677 28.426C110.677 28.8953 110.842 29.2932 111.172 29.6195C111.498 29.9458 111.894 30.109 112.36 30.109C112.825 30.109 113.221 29.9458 113.548 29.6195C113.878 29.2932 114.043 28.8953 114.043 28.426ZM122.224 30.549C122.224 30.7067 122.167 30.8442 122.053 30.9615C121.94 31.0752 121.802 31.132 121.641 31.132C121.483 31.132 121.346 31.0752 121.228 30.9615C121.115 30.8442 121.058 30.7067 121.058 30.549V30.274C120.6 30.846 119.962 31.132 119.144 31.132C118.411 31.132 117.787 30.8717 117.274 30.351C116.761 29.8303 116.504 29.1887 116.504 28.426C116.504 27.6633 116.761 27.0217 117.274 26.501C117.787 25.9803 118.411 25.72 119.144 25.72C119.962 25.72 120.6 26.006 121.058 26.578V23.201C121.058 23.0397 121.115 22.9022 121.228 22.7885C121.346 22.6748 121.483 22.618 121.641 22.618C121.802 22.618 121.94 22.6748 122.053 22.7885C122.167 22.9022 122.224 23.0397 122.224 23.201V30.549ZM121.025 28.426C121.025 27.9567 120.86 27.557 120.53 27.227C120.204 26.9043 119.808 26.743 119.342 26.743C118.876 26.743 118.48 26.9043 118.154 27.227C117.824 27.557 117.659 27.9567 117.659 28.426C117.659 28.8953 117.824 29.2932 118.154 29.6195C118.48 29.9458 118.876 30.109 119.342 30.109C119.808 30.109 120.204 29.9458 120.53 29.6195C120.86 29.2932 121.025 28.8953 121.025 28.426ZM129.864 23.168C130.022 23.168 130.132 23.2487 130.194 23.41L133.043 30.241C133.095 30.3547 133.12 30.45 133.12 30.527C133.12 30.6957 133.062 30.8387 132.944 30.956C132.831 31.0733 132.695 31.132 132.537 31.132C132.266 31.132 132.075 30.9963 131.965 30.725L131.371 29.251H128.346L127.763 30.725C127.653 30.9963 127.463 31.132 127.191 31.132C127.034 31.132 126.898 31.0733 126.784 30.956C126.667 30.8387 126.608 30.6957 126.608 30.527C126.608 30.45 126.634 30.3547 126.685 30.241L129.534 23.41C129.597 23.2487 129.707 23.168 129.864 23.168ZM128.775 28.195H130.953L129.864 25.467L128.775 28.195ZM134.204 26.303C134.204 26.1417 134.261 26.0042 134.375 25.8905C134.492 25.7768 134.63 25.72 134.787 25.72C134.949 25.72 135.086 25.7768 135.2 25.8905C135.314 26.0042 135.37 26.1417 135.37 26.303V26.578C135.829 26.006 136.467 25.72 137.284 25.72C138.018 25.72 138.641 25.9803 139.154 26.501C139.668 27.0217 139.924 27.6633 139.924 28.426C139.924 29.1887 139.668 29.8303 139.154 30.351C138.641 30.8717 138.018 31.132 137.284 31.132C136.467 31.132 135.829 30.846 135.37 30.274V33.519C135.37 33.6767 135.314 33.8142 135.2 33.9315C135.086 34.0452 134.949 34.102 134.787 34.102C134.63 34.102 134.492 34.0452 134.375 33.9315C134.261 33.8142 134.204 33.6767 134.204 33.519V26.303ZM135.403 28.426C135.403 28.8953 135.568 29.2932 135.898 29.6195C136.225 29.9458 136.621 30.109 137.086 30.109C137.552 30.109 137.948 29.9458 138.274 29.6195C138.604 29.2932 138.769 28.8953 138.769 28.426C138.769 27.9567 138.604 27.557 138.274 27.227C137.948 26.9043 137.552 26.743 137.086 26.743C136.621 26.743 136.225 26.9043 135.898 27.227C135.568 27.557 135.403 27.9567 135.403 28.426ZM141.187 26.303C141.187 26.1417 141.244 26.0042 141.357 25.8905C141.475 25.7768 141.612 25.72 141.77 25.72C141.931 25.72 142.069 25.7768 142.182 25.8905C142.296 26.0042 142.353 26.1417 142.353 26.303V26.578C142.811 26.006 143.449 25.72 144.267 25.72C145 25.72 145.623 25.9803 146.137 26.501C146.65 27.0217 146.907 27.6633 146.907 28.426C146.907 29.1887 146.65 29.8303 146.137 30.351C145.623 30.8717 145 31.132 144.267 31.132C143.449 31.132 142.811 30.846 142.353 30.274V33.519C142.353 33.6767 142.296 33.8142 142.182 33.9315C142.069 34.0452 141.931 34.102 141.77 34.102C141.612 34.102 141.475 34.0452 141.357 33.9315C141.244 33.8142 141.187 33.6767 141.187 33.519V26.303ZM142.386 28.426C142.386 28.8953 142.551 29.2932 142.881 29.6195C143.207 29.9458 143.603 30.109 144.069 30.109C144.534 30.109 144.93 29.9458 145.257 29.6195C145.587 29.2932 145.752 28.8953 145.752 28.426C145.752 27.9567 145.587 27.557 145.257 27.227C144.93 26.9043 144.534 26.743 144.069 26.743C143.603 26.743 143.207 26.9043 142.881 27.227C142.551 27.557 142.386 27.9567 142.386 28.426Z" fill="white"/>
<path d="M77.44 36.76C77.7267 36.76 77.9267 36.9067 78.04 37.2L83.22 49.62C83.3133 49.8267 83.36 50 83.36 50.14C83.36 50.4467 83.2533 50.7067 83.04 50.92C82.8333 51.1333 82.5867 51.24 82.3 51.24C81.8067 51.24 81.46 50.9933 81.26 50.5L80.18 47.82H74.68L73.62 50.5C73.42 50.9933 73.0733 51.24 72.58 51.24C72.2933 51.24 72.0467 51.1333 71.84 50.92C71.6267 50.7067 71.52 50.4467 71.52 50.14C71.52 50 71.5667 49.8267 71.66 49.62L76.84 37.2C76.9533 36.9067 77.1533 36.76 77.44 36.76ZM75.46 45.9H79.42L77.44 40.94L75.46 45.9ZM85.3311 42.46C85.3311 42.1667 85.4344 41.9167 85.6411 41.71C85.8544 41.5033 86.1044 41.4 86.3911 41.4C86.6844 41.4 86.9344 41.5033 87.1411 41.71C87.3478 41.9167 87.4511 42.1667 87.4511 42.46V42.96C88.2844 41.92 89.4444 41.4 90.9311 41.4C92.2644 41.4 93.3978 41.8733 94.3311 42.82C95.2644 43.7667 95.7311 44.9333 95.7311 46.32C95.7311 47.7067 95.2644 48.8733 94.3311 49.82C93.3978 50.7667 92.2644 51.24 90.9311 51.24C89.4444 51.24 88.2844 50.72 87.4511 49.68V55.58C87.4511 55.8667 87.3478 56.1167 87.1411 56.33C86.9344 56.5367 86.6844 56.64 86.3911 56.64C86.1044 56.64 85.8544 56.5367 85.6411 56.33C85.4344 56.1167 85.3311 55.8667 85.3311 55.58V42.46ZM87.5111 46.32C87.5111 47.1733 87.8111 47.8967 88.4111 48.49C89.0044 49.0833 89.7244 49.38 90.5711 49.38C91.4178 49.38 92.1378 49.0833 92.7311 48.49C93.3311 47.8967 93.6311 47.1733 93.6311 46.32C93.6311 45.4667 93.3311 44.74 92.7311 44.14C92.1378 43.5533 91.4178 43.26 90.5711 43.26C89.7244 43.26 89.0044 43.5533 88.4111 44.14C87.8111 44.74 87.5111 45.4667 87.5111 46.32ZM98.0264 42.46C98.0264 42.1667 98.1297 41.9167 98.3364 41.71C98.5497 41.5033 98.7997 41.4 99.0864 41.4C99.3797 41.4 99.6297 41.5033 99.8364 41.71C100.043 41.9167 100.146 42.1667 100.146 42.46V42.96C100.98 41.92 102.14 41.4 103.626 41.4C104.96 41.4 106.093 41.8733 107.026 42.82C107.96 43.7667 108.426 44.9333 108.426 46.32C108.426 47.7067 107.96 48.8733 107.026 49.82C106.093 50.7667 104.96 51.24 103.626 51.24C102.14 51.24 100.98 50.72 100.146 49.68V55.58C100.146 55.8667 100.043 56.1167 99.8364 56.33C99.6297 56.5367 99.3797 56.64 99.0864 56.64C98.7997 56.64 98.5497 56.5367 98.3364 56.33C98.1297 56.1167 98.0264 55.8667 98.0264 55.58V42.46ZM100.206 46.32C100.206 47.1733 100.506 47.8967 101.106 48.49C101.7 49.0833 102.42 49.38 103.266 49.38C104.113 49.38 104.833 49.0833 105.426 48.49C106.026 47.8967 106.326 47.1733 106.326 46.32C106.326 45.4667 106.026 44.74 105.426 44.14C104.833 43.5533 104.113 43.26 103.266 43.26C102.42 43.26 101.7 43.5533 101.106 44.14C100.506 44.74 100.206 45.4667 100.206 46.32ZM121.478 42.38C122.731 42.8933 123.651 43.5333 124.238 44.3C124.811 45.0533 125.098 45.9733 125.098 47.06C125.098 48.2333 124.718 49.2067 123.958 49.98C123.131 50.82 122.011 51.24 120.598 51.24C119.704 51.24 118.868 51.02 118.088 50.58C117.314 50.1533 116.684 49.5667 116.198 48.82C116.078 48.6267 116.018 48.4333 116.018 48.24C116.018 47.96 116.121 47.7167 116.328 47.51C116.534 47.3033 116.778 47.2 117.058 47.2C117.411 47.2 117.698 47.3533 117.918 47.66C118.244 48.1067 118.661 48.45 119.168 48.69C119.641 48.9233 120.131 49.04 120.638 49.04C121.244 49.04 121.758 48.83 122.178 48.41C122.578 48.0033 122.778 47.5267 122.778 46.98C122.778 46.3733 122.594 45.87 122.228 45.47C121.834 45.0433 121.144 44.6133 120.158 44.18C119.064 43.7 118.261 43.1567 117.748 42.55C117.194 41.8967 116.918 41.1 116.918 40.16C116.918 39.2067 117.258 38.4067 117.938 37.76C118.644 37.0933 119.544 36.76 120.638 36.76C121.911 36.76 122.951 37.26 123.758 38.26C123.971 38.5267 124.078 38.7733 124.078 39C124.078 39.26 123.978 39.4867 123.778 39.68C123.578 39.88 123.344 39.98 123.078 39.98C122.791 39.98 122.531 39.8533 122.298 39.6C121.911 39.1733 121.404 38.96 120.778 38.96C120.298 38.96 119.918 39.08 119.638 39.32C119.371 39.56 119.238 39.8733 119.238 40.26C119.238 40.7133 119.401 41.0933 119.728 41.4C120.048 41.7 120.631 42.0267 121.478 42.38ZM131.779 41.64C132.052 41.64 132.282 41.7367 132.469 41.93C132.662 42.1167 132.759 42.3467 132.759 42.62C132.759 42.8867 132.662 43.1167 132.469 43.31C132.282 43.5033 132.052 43.6 131.779 43.6H130.219V50.18C130.219 50.4667 130.115 50.7167 129.909 50.93C129.702 51.1367 129.452 51.24 129.159 51.24C128.872 51.24 128.622 51.1367 128.409 50.93C128.202 50.7167 128.099 50.4667 128.099 50.18V43.6H127.319C127.052 43.6 126.822 43.5033 126.629 43.31C126.435 43.1167 126.339 42.8867 126.339 42.62C126.339 42.3467 126.435 42.1167 126.629 41.93C126.822 41.7367 127.052 41.64 127.319 41.64H128.099V39.82C128.099 39.5267 128.202 39.2767 128.409 39.07C128.622 38.8633 128.872 38.76 129.159 38.76C129.452 38.76 129.702 38.8633 129.909 39.07C130.115 39.2767 130.219 39.5267 130.219 39.82V41.64H131.779ZM135.894 46.32C135.894 47.1667 136.18 47.8733 136.754 48.44C137.327 49 138.04 49.28 138.894 49.28C139.747 49.28 140.46 49 141.034 48.44C141.607 47.8733 141.894 47.1667 141.894 46.32C141.894 45.4733 141.607 44.7667 141.034 44.2C140.46 43.64 139.747 43.36 138.894 43.36C138.04 43.36 137.327 43.64 136.754 44.2C136.18 44.7667 135.894 45.4733 135.894 46.32ZM133.774 46.32C133.774 44.9333 134.267 43.7667 135.254 42.82C136.24 41.8733 137.454 41.4 138.894 41.4C140.334 41.4 141.547 41.8733 142.534 42.82C143.52 43.7667 144.014 44.9333 144.014 46.32C144.014 47.7067 143.52 48.8733 142.534 49.82C141.547 50.7667 140.334 51.24 138.894 51.24C137.454 51.24 136.24 50.7667 135.254 49.82C134.267 48.8733 133.774 47.7067 133.774 46.32ZM148.428 42.66C149.101 41.82 149.921 41.4 150.888 41.4C151.001 41.4 151.124 41.4033 151.258 41.41C151.418 41.4233 151.548 41.44 151.648 41.46C151.888 41.5067 152.081 41.6167 152.228 41.79C152.374 41.9633 152.448 42.1667 152.448 42.4C152.448 42.66 152.354 42.8833 152.168 43.07C151.974 43.2633 151.748 43.36 151.488 43.36C151.434 43.36 151.368 43.3533 151.288 43.34L151.188 43.32L151.108 43.3C150.888 43.26 150.681 43.24 150.488 43.24C149.888 43.24 149.391 43.4833 148.998 43.97C148.618 44.4367 148.428 45.0133 148.428 45.7V50.18C148.428 50.4667 148.324 50.7167 148.118 50.93C147.911 51.1367 147.661 51.24 147.368 51.24C147.081 51.24 146.831 51.1367 146.618 50.93C146.411 50.7167 146.308 50.4667 146.308 50.18V42.46C146.308 42.1667 146.411 41.9167 146.618 41.71C146.831 41.5033 147.081 41.4 147.368 41.4C147.661 41.4 147.911 41.5033 148.118 41.71C148.324 41.9167 148.428 42.1667 148.428 42.46V42.66ZM158.679 51.24C157.233 51.24 156.016 50.77 155.029 49.83C154.036 48.8833 153.539 47.7133 153.539 46.32C153.539 44.9467 154.029 43.78 155.009 42.82C155.983 41.8733 157.153 41.4 158.519 41.4C159.853 41.4 160.999 41.85 161.959 42.75C162.906 43.6433 163.419 44.7533 163.499 46.08C163.513 46.28 163.449 46.4567 163.309 46.61C163.163 46.79 162.966 46.88 162.719 46.88H155.699C155.826 47.6333 156.189 48.23 156.789 48.67C157.343 49.0767 157.986 49.28 158.719 49.28C159.659 49.28 160.446 48.9 161.079 48.14C161.286 47.8733 161.553 47.74 161.879 47.74C162.173 47.74 162.416 47.8367 162.609 48.03C162.803 48.2233 162.899 48.4667 162.899 48.76C162.899 49.02 162.813 49.2467 162.639 49.44C161.593 50.64 160.273 51.24 158.679 51.24ZM161.339 45.32C161.193 44.6733 160.859 44.18 160.339 43.84C159.853 43.52 159.253 43.36 158.539 43.36C157.966 43.36 157.429 43.53 156.929 43.87C156.389 44.23 156.019 44.7133 155.819 45.32H161.339Z" fill="white"/>
<path d="M33.4727 33.8625C31.2747 37.4858 32.672 42.9844 35.1027 46.3184C36.316 47.9852 37.5444 49.4814 39.2269 49.4814C39.2586 49.4814 39.2904 49.4809 39.323 49.4797C40.1135 49.4497 40.6847 49.2185 41.237 48.9951C41.8571 48.7441 42.4984 48.4845 43.5043 48.4845C44.4613 48.4845 45.072 48.7356 45.6626 48.9784C46.2446 49.2176 46.8442 49.4651 47.73 49.4493C49.6252 49.4158 50.7888 47.8012 51.8155 46.3769C52.8868 44.8898 53.4241 43.4459 53.6055 42.8941L53.6128 42.8722C53.6473 42.7741 53.5986 42.667 53.4996 42.6239C53.4969 42.6227 53.4868 42.6187 53.484 42.6176C53.1502 42.4879 50.2227 41.2542 50.192 37.8917C50.1634 35.1599 52.3881 33.7132 52.8343 33.451L52.8551 33.4387C52.9035 33.4092 52.9371 33.3623 52.9486 33.3087C52.96 33.2551 52.948 33.1994 52.9156 33.1544C51.38 31.0197 49.0264 30.698 48.0788 30.6592C47.9413 30.6462 47.7994 30.6396 47.6568 30.6396C46.5438 30.6396 45.4777 31.0389 44.6211 31.3598C44.0299 31.5813 43.5191 31.7725 43.1669 31.7725C42.7711 31.7725 42.2575 31.5789 41.6627 31.3548C40.8674 31.0549 39.9659 30.7151 39.0116 30.7151C38.9888 30.7151 38.9664 30.7154 38.9443 30.7158C36.7254 30.7468 34.6287 31.9527 33.4727 33.8625Z" fill="white"/>
<path d="M48.0807 24.7834C46.737 24.8353 45.1251 25.6211 44.1616 26.6931C43.3428 27.5941 42.543 29.0964 42.7537 30.6107C42.7669 30.7054 42.8481 30.7786 42.9484 30.7859C43.0391 30.7927 43.1317 30.7961 43.2239 30.7961C44.5378 30.7961 45.9552 30.1056 46.9232 28.9938C47.9419 27.8198 48.4571 26.3131 48.3012 24.9635C48.289 24.8578 48.191 24.7792 48.0807 24.7834Z" fill="white"/>
<defs>
<filter id="filter0_d" x="0" y="0" width="214" height="89" filterUnits="userSpaceOnUse" color-interpolation-filters="sRGB">
<feFlood flood-opacity="0" result="BackgroundImageFix"/>
<feColorMatrix in="SourceAlpha" type="matrix" values="0 0 0 0 0 0 0 0 0 0 0 0 0 0 0 0 0 0 127 0"/>
<feOffset dy="6"/>
<feGaussianBlur stdDeviation="7.5"/>
<feColorMatrix type="matrix" values="0 0 0 0 0.282353 0 0 0 0 0.282353 0 0 0 0 0.282353 0 0 0 1 0"/>
<feBlend mode="normal" in2="BackgroundImageFix" result="effect1_dropShadow"/>
<feBlend mode="normal" in="SourceGraphic" in2="effect1_dropShadow" result="shape"/>
</filter>
</defs>
</svg>
