<?xml version="1.0" encoding="UTF-8"?> <svg xmlns="http://www.w3.org/2000/svg" width="45" height="45" viewBox="0 0 45 45" fill="none"><path d="M35.6838 16.3472C36.169 16.3472 36.5627 15.9534 36.5627 15.4683C36.5627 14.9831 36.169 14.5894 35.6838 14.5894C35.1987 14.5894 34.8049 14.9831 34.8049 15.4683C34.8049 15.9534 35.1987 16.3472 35.6838 16.3472Z" fill="#EE0033"></path><path d="M34.9976 38.8693C35.4615 39.4492 36.3974 39.2274 36.5457 38.494L44.1026 1.06017C44.1582 0.795128 44.0899 0.51841 43.9134 0.310013C43.9131 0.310013 43.9131 0.310013 43.9127 0.309669V0.309326C43.6789 0.0343244 43.3661 0.015785 43.3572 0.0068586C43.225 -0.00687431 43.1049 -0.00275444 42.9634 0.0449674L2.02253 12.8718C1.22739 13.1211 1.19512 14.2403 1.97652 14.5335L15.3778 19.5591L13.7199 31.1644C13.7192 31.1689 13.7195 31.173 13.7192 31.1771C13.631 31.8696 14.3512 32.3908 14.9833 32.0749L25.3966 26.8677L34.9976 38.8693ZM35.1947 36.3019C34.6303 35.596 23.3515 21.4978 22.8203 20.8338L41.8459 3.35494L35.1947 36.3019ZM4.98712 13.7851L37.7398 3.52351L16.2327 18.0021L4.98712 13.7851ZM17.1627 19.4952L34.0652 8.11614L21.0268 20.0947C21.0234 20.0978 21.0206 20.1012 21.0172 20.1043C21.0059 20.1149 20.9952 20.1263 20.9842 20.1376C20.9743 20.1482 20.9643 20.1589 20.9551 20.1699C20.9468 20.1795 20.9389 20.1891 20.9314 20.199C20.92 20.2131 20.9094 20.2272 20.8994 20.242C20.8964 20.2464 20.8929 20.2502 20.8902 20.2547L16.0081 27.5774L17.1627 19.4952ZM17.1572 29.0224L21.686 22.2295L24.2736 25.4639L17.1572 29.0224Z" fill="#EE0033"></path><path d="M33.1911 31.2397C33.671 31.3115 34.1187 30.9812 34.1908 30.5009L35.9071 19.0549C35.9792 18.5749 35.6486 18.1272 35.1683 18.0551C34.688 17.9837 34.241 18.314 34.1689 18.7939L32.4522 30.24C32.3801 30.7203 32.7111 31.1676 33.1911 31.2397Z" fill="#EE0033"></path><path d="M1.1364 44.7426C1.47972 45.0859 2.0359 45.0856 2.37923 44.7426L8.18035 38.9418C8.52333 38.5985 8.52333 38.042 8.18035 37.6986C7.83703 37.3557 7.2805 37.3557 6.93718 37.6986L1.1364 43.4994C0.793076 43.8427 0.793076 44.3993 1.1364 44.7426Z" fill="#EE0033"></path><path d="M15.7262 37.6986L9.92546 43.4998C9.58214 43.8427 9.58214 44.3993 9.92546 44.7426C10.2688 45.0859 10.8253 45.0859 11.1686 44.7426L16.9694 38.9418C17.3127 38.5985 17.3127 38.042 16.9694 37.6986C16.6261 37.3557 16.0696 37.3557 15.7262 37.6986Z" fill="#EE0033"></path><path d="M1.1364 35.9533C1.47972 36.2963 2.0359 36.2963 2.37923 35.9533L8.18035 30.1525C8.52333 29.8092 8.52333 29.2527 8.18035 28.9093C7.83703 28.566 7.2805 28.566 6.93718 28.9093L1.1364 34.7101C0.793076 35.0535 0.793076 35.61 1.1364 35.9533Z" fill="#EE0033"></path></svg> 