<?xml version="1.0" encoding="UTF-8"?> <svg xmlns="http://www.w3.org/2000/svg" width="45" height="45" viewBox="0 0 45 45" fill="none"><g clip-path="url(#clip0)"><path d="M7.68428 36.623C8.16969 36.623 8.56319 36.2295 8.56319 35.7441C8.56319 35.2587 8.16969 34.8652 7.68428 34.8652C7.19887 34.8652 6.80537 35.2587 6.80537 35.7441C6.80537 36.2295 7.19887 36.623 7.68428 36.623Z" fill="#EE0033"></path><path d="M41.3438 26.1421C41.8292 26.1421 42.2227 25.7486 42.2227 25.2632C42.2227 24.7778 41.8292 24.3843 41.3438 24.3843C40.8583 24.3843 40.4648 24.7778 40.4648 25.2632C40.4648 25.7486 40.8583 26.1421 41.3438 26.1421Z" fill="#EE0033"></path><path d="M31.1701 18.6628H30.6606H30.3301H29.8206C29.394 18.6628 29.047 18.3158 29.047 17.8892V17.1042C29.0471 16.6776 29.394 16.3306 29.8206 16.3306H31.3158C31.662 16.3306 31.9438 16.6122 31.9438 16.9585C31.9438 17.4438 32.3373 17.8374 32.8227 17.8374C33.308 17.8374 33.7016 17.4438 33.7016 16.9585C33.7016 15.6627 32.6629 14.6056 31.3743 14.5743V13.8198C31.3743 13.3345 30.9807 12.9409 30.4954 12.9409C30.0101 12.9409 29.6165 13.3345 29.6165 13.8198V14.5817C28.3159 14.6862 27.2892 15.7772 27.2892 17.1042V17.8892C27.2892 19.285 28.4249 20.4206 29.8207 20.4206H30.3302H30.6607H31.1702C31.5969 20.4206 31.9438 20.7676 31.9438 21.1941V21.9791C31.9438 22.4057 31.5969 22.7527 31.1702 22.7527H29.675C29.3288 22.7527 29.0471 22.4711 29.0471 22.1248C29.0471 21.6395 28.6535 21.2459 28.1682 21.2459C27.6828 21.2459 27.2892 21.6395 27.2892 22.1248C27.2892 23.4206 28.328 24.4777 29.6165 24.509V25.2634C29.6165 25.7488 30.0101 26.1424 30.4954 26.1424C30.9807 26.1424 31.3743 25.7488 31.3743 25.2634V24.5015C32.6749 24.3971 33.7016 23.3061 33.7016 21.9791V21.1941C33.7016 19.7983 32.5659 18.6628 31.1701 18.6628Z" fill="#EE0033"></path><path d="M43.9364 29.7957C43.5748 28.9766 42.9158 28.3473 42.0809 28.0239C41.246 27.7005 40.335 27.7214 39.516 28.0832C39.5116 28.0851 39.5072 28.0871 39.503 28.089L33.9668 30.6421C33.526 30.8454 33.3335 31.3675 33.5367 31.8083C33.74 32.2492 34.2622 32.4415 34.7029 32.2384L40.2319 29.6886C40.62 29.5193 41.0508 29.5102 41.446 29.6631C41.8431 29.817 42.1564 30.1161 42.3284 30.5058C42.5005 30.8954 42.5104 31.3285 42.3566 31.7256C42.2027 32.1228 41.9035 32.4361 41.5139 32.6081L30.1848 37.6103C28.3984 38.3991 26.3706 38.3532 24.6213 37.4842L20.4741 35.4239C18.2559 34.3219 15.6843 34.2634 13.4185 35.2641L13.3658 35.2873L10.292 28.3255L14.5659 26.4384C16.6084 25.5366 18.8874 25.464 20.983 26.2335L29.3225 29.296C30.0674 29.5695 30.4644 30.4029 30.2075 31.1536C29.9458 31.9186 29.1097 32.3302 28.3438 32.0712L21.8948 29.8899C21.4349 29.7343 20.9362 29.981 20.7806 30.4409C20.625 30.9007 20.8717 31.3995 21.3316 31.5551L27.7806 33.7364C28.1216 33.8517 28.4688 33.9065 28.8107 33.9065C30.154 33.9065 31.4128 33.061 31.8707 31.7226C32.4344 30.075 31.563 28.2463 29.9284 27.6461L21.5889 24.5835C21.028 24.3775 20.4562 24.2218 19.8791 24.1158V19.2575C19.8791 14.4671 23.7764 10.5698 28.5668 10.5698H31.777C36.5674 10.5698 40.4648 14.4671 40.4648 19.2575V21.548C40.4648 22.0334 40.8583 22.4269 41.3437 22.4269C41.829 22.4269 42.2226 22.0334 42.2226 21.548V19.2575C42.2226 14.1844 38.587 9.94497 33.7844 9.0063V6.35877L36.0051 2.55996C36.1307 2.34525 36.1594 2.08729 36.084 1.85025C36.0085 1.61321 35.8364 1.41914 35.6099 1.31622L32.8861 0.0787232C32.6776 -0.0160229 32.4404 -0.025603 32.2249 0.0519165L30.2039 0.779299L28.4113 0.0627271C28.2052 -0.0195385 27.9757 -0.0208569 27.7686 0.0588599L24.9185 1.15846C24.6814 1.24995 24.4955 1.43971 24.4086 1.67868C24.322 1.91766 24.3429 2.18239 24.4662 2.40475L26.653 6.34814V8.9882C21.8042 9.88978 18.1213 14.1512 18.1213 19.2573V23.9472C16.6693 23.9335 15.219 24.2283 13.856 24.8301L9.5502 26.7312C9.30358 26.3622 8.95184 26.0769 8.52935 25.9132C7.98689 25.703 7.39495 25.7167 6.86488 25.9507L1.30228 28.3882C0.982624 28.5283 0.776169 28.8442 0.776169 29.1932V44.1211C0.776169 44.4263 0.934548 44.7097 1.19453 44.8697C1.33542 44.9563 1.49503 45 1.65508 45C1.7906 45 1.92648 44.9687 2.05137 44.9056L12.8508 39.4501C13.3716 39.213 13.7716 38.7894 13.9787 38.2548C14.1479 37.8181 14.1719 37.3494 14.0524 36.9055L14.1284 36.8719C15.915 36.0829 17.943 36.1289 19.692 36.9981L23.8391 39.0584C26.0574 40.1602 28.629 40.2185 30.8947 39.2182L42.2238 34.216C43.0429 33.8544 43.6722 33.1954 43.9956 32.3605C44.319 31.5256 44.298 30.6147 43.9364 29.7957ZM32.0266 8.8118H31.777H28.5668H28.4108V6.99967H32.0266V8.8118ZM26.493 2.4349L28.0793 1.82309L29.8613 2.53544C30.061 2.61525 30.283 2.6192 30.4852 2.54625L32.4842 1.82669L33.996 2.51356L32.4012 5.24168H28.0495L26.493 2.4349ZM12.1173 37.8525C12.1034 37.8587 12.0896 37.8653 12.076 37.8721L2.53398 42.6924V39.1307L5.00485 37.9174C5.44061 37.7034 5.62035 37.1767 5.40642 36.7411C5.19241 36.3053 4.66594 36.1254 4.2301 36.3395L2.53389 37.1723V29.7676L7.57258 27.5597C7.711 27.4987 7.83361 27.5287 7.89434 27.5523C7.9549 27.5758 8.06582 27.6359 8.12699 27.7745L8.32844 28.2306C8.32852 28.2308 8.32852 28.231 8.32861 28.2311C8.3287 28.2313 8.32879 28.2315 8.32888 28.2317L12.3319 37.2979C12.4257 37.5101 12.3295 37.7588 12.1173 37.8525Z" fill="#EE0033"></path></g><defs><clipPath id="clip0"><rect width="45" height="45" fill="white"></rect></clipPath></defs></svg> 