<?xml version="1.0" encoding="UTF-8"?> <svg xmlns="http://www.w3.org/2000/svg" width="45" height="45" viewBox="0 0 45 45" fill="none"><g clip-path="url(#clip0)"><path d="M24.5877 11.7133C24.2441 12.056 24.2441 12.6132 24.5877 12.9558C24.9304 13.2995 25.4866 13.2995 25.8302 12.9558C26.1729 12.6132 26.1729 12.056 25.8302 11.7133C25.4866 11.3696 24.9304 11.3696 24.5877 11.7133Z" fill="#EE0033"></path><path d="M23.3909 14.2453C23.0226 13.9291 22.4677 13.9713 22.1515 14.3397C21.1772 15.4751 19.3875 17.6174 18.3462 19.2104C18.0804 19.6166 18.1944 20.1614 18.6009 20.4268C19.0088 20.6932 19.5526 20.5768 19.8173 20.1721C20.8407 18.6062 22.7232 16.3722 23.4854 15.4847C23.8016 15.1163 23.759 14.5615 23.3909 14.2453Z" fill="#EE0033"></path><path d="M29.559 9.22762C27.8414 10.9442 27.8404 13.7238 29.5587 15.4411C31.276 17.1594 34.0552 17.1597 35.7725 15.4411C37.4895 13.7241 37.4898 10.9453 35.7725 9.22796C34.0555 7.511 31.2763 7.51032 29.559 9.22762ZM34.5297 14.1986C34.5293 14.1986 34.5293 14.1986 34.5293 14.1986C33.4994 15.2292 31.8329 15.2303 30.8015 14.1982C29.7709 13.1683 29.7702 11.5014 30.8019 10.4708C31.8322 9.44048 33.499 9.44048 34.5297 10.4708C35.5596 11.5008 35.56 13.1679 34.5297 14.1986Z" fill="#EE0033"></path><path d="M1.50441 44.7385L6.99792 39.2447C7.34124 38.9017 7.34124 38.3452 6.99792 38.0019C6.65459 37.6589 6.09841 37.6589 5.75509 38.0019L0.261581 43.4954C-0.0817413 43.8387 -0.0817413 44.3952 0.261581 44.7385C0.604904 45.0815 1.16109 45.0815 1.50441 44.7385Z" fill="#EE0033"></path><path d="M10.2928 44.7385L15.7863 39.2447C16.1293 38.9017 16.1293 38.3452 15.7863 38.0019C15.443 37.6589 14.8868 37.6589 14.5432 38.0019L9.04965 43.4954C8.70667 43.8387 8.70667 44.3952 9.04965 44.7385C9.39332 45.0815 9.9495 45.0815 10.2928 44.7385Z" fill="#EE0033"></path><path d="M0.261581 35.9504C0.604904 36.2933 1.16109 36.2933 1.50441 35.9504L6.99792 30.4569C7.34124 30.1135 7.34124 29.557 6.99792 29.214C6.65459 28.8707 6.09841 28.8707 5.75509 29.214L0.261581 34.7075C-0.0817413 35.0505 -0.0817413 35.607 0.261581 35.9504Z" fill="#EE0033"></path><path d="M44.9987 0.927795C45.0127 0.678199 44.9193 0.43444 44.7425 0.257629C44.5657 0.0808177 44.3216 -0.0132528 44.0724 0.00151015C39.6057 0.250762 28.938 2.39104 22.1011 9.22797C20.633 10.696 19.2439 12.2585 17.9633 13.8772C12.4819 12.7996 6.89462 14.4914 2.93164 18.4548C1.81824 19.5682 0.870328 20.8264 0.113645 22.1953C-0.312419 22.9664 0.540738 23.8137 1.30772 23.3897C4.82129 21.4499 8.95318 21.0156 12.7843 22.1544C12.4458 22.9248 12.1701 23.6609 11.9638 24.3506C11.7303 25.1259 11.8934 25.9663 12.3854 26.6252C12.1396 26.8226 11.9023 27.0347 11.6757 27.2613C9.41358 29.5235 8.95352 35.0366 8.93498 35.2704C8.89447 35.7826 9.29994 36.2186 9.8108 36.2186C9.8338 36.2186 9.85715 36.2176 9.88015 36.2159C10.1136 36.1973 15.6277 35.738 17.8902 33.4758C18.1261 33.24 18.3465 32.9924 18.5508 32.736C19.19 33.139 19.9519 33.2468 20.6485 33.0374C21.3389 32.8307 22.0753 32.5547 22.8461 32.2162C23.9849 36.047 23.5506 40.1792 21.6108 43.6928C21.1813 44.4704 22.0458 45.306 22.8052 44.8865C24.1741 44.1302 25.4323 43.1822 26.5457 42.0688C30.5087 38.1059 32.2006 32.5183 31.1229 27.0371C32.742 25.7562 34.3045 24.3671 35.7725 22.8991C39.1381 19.5335 41.688 15.0181 43.3521 9.47825C44.2173 6.73132 44.8864 2.94104 44.9987 0.927795ZM3.34534 20.5961C3.60867 20.2864 3.88539 19.9863 4.17447 19.6976C7.51191 16.3598 12.1378 14.8238 16.7597 15.4586C15.4942 17.1924 14.4045 18.9241 13.5558 20.5521C10.2077 19.495 6.6385 19.5222 3.34534 20.5961ZM16.6474 32.233C15.4389 33.4415 12.603 34.0787 10.8112 34.3389C11.0708 32.5485 11.7073 29.7154 12.9186 28.5042C13.1393 28.2834 13.3721 28.0802 13.6141 27.8948L17.2564 31.5371C17.0714 31.7791 16.8681 32.0119 16.6474 32.233ZM20.1434 31.3537C19.8702 31.4358 19.5471 31.3421 19.3202 31.1151C18.065 29.8599 14.4858 26.2808 13.8854 25.6803C13.6581 25.4534 13.5647 25.13 13.6471 24.8557C13.8428 24.2013 14.1089 23.4965 14.4405 22.7528C16.1733 23.4975 17.7337 24.5573 19.0884 25.9114C20.4428 27.2665 21.5027 28.8269 22.2473 30.5596C21.5037 30.8913 20.7985 31.1577 20.1434 31.3537ZM25.3029 40.826C25.0138 41.1151 24.7141 41.3915 24.4041 41.6548C25.4783 38.3616 25.5055 34.7925 24.4484 31.4444C26.0761 30.5957 27.8078 29.506 29.5416 28.2405C30.1767 32.8626 28.6403 37.4882 25.3029 40.826ZM34.5297 21.6562C31.4975 24.6881 27.6286 27.7684 23.827 29.7858C22.9965 27.8803 21.824 26.162 20.3312 24.6686C18.8378 23.1761 17.1198 22.0037 15.2144 21.1735C17.2317 17.3719 20.312 13.5027 23.3439 10.4708C26.4033 7.41145 30.5039 5.06174 35.5387 3.48177L41.5184 9.46142C39.9388 14.4963 37.5887 18.5969 34.5297 21.6562ZM42.0735 7.53058L37.4696 2.92662C39.925 2.28495 41.9846 1.98489 43.1478 1.85236C43.0153 3.01554 42.7156 5.07513 42.0735 7.53058Z" fill="#EE0033"></path></g><defs><clipPath id="clip0"><rect width="45" height="45" fill="white"></rect></clipPath></defs></svg> 