<?xml version="1.0"?>
<svg xmlns="http://www.w3.org/2000/svg" xmlns:xlink="http://www.w3.org/1999/xlink" xmlns:svgjs="http://svgjs.com/svgjs" version="1.1" width="512" height="512" x="0" y="0" viewBox="0 0 512 512" style="enable-background:new 0 0 512 512" xml:space="preserve" class=""><g><g xmlns="http://www.w3.org/2000/svg"><path d="m471 106.652h-67.539v-99.152c0-4.142-3.357-7.5-7.5-7.5h-200.163c-4.142 0-7.5 3.358-7.5 7.5s3.358 7.5 7.5 7.5h192.663v319.127h-264.921v-319.127h42.271c4.142 0 7.5-3.358 7.5-7.5s-3.358-7.5-7.5-7.5h-49.771c-4.142 0-7.5 3.358-7.5 7.5v99.152h-67.539c-13.438 0-24.37 10.933-24.37 24.37v269.398c0 13.442 10.933 24.379 24.37 24.379h167.093c4.161 18.726-1.973 35.011-17.94 47.453h-10.18c-10.057 0-18.861 5.609-21.909 13.959l-4.212 11.543c-1.187 3.25-.711 6.883 1.272 9.718 1.983 2.836 5.232 4.528 8.692 4.528h184.365c3.46 0 6.71-1.692 8.693-4.528 1.982-2.835 2.458-6.468 1.272-9.717l-4.214-11.544c-3.047-8.35-11.852-13.959-21.908-13.959h-10.18c-15.967-12.442-22.101-28.727-17.94-47.453h39.82c4.143 0 7.5-3.357 7.5-7.5s-3.357-7.5-7.5-7.5c-61.491 0-241.226 0-302.726 0-5.167 0-9.37-4.207-9.37-9.379v-51.293c139.372.006 183.695.004 448.739 0v51.293c0 5.172-4.203 9.379-9.37 9.379h-97.286c-4.143 0-7.5 3.357-7.5 7.5s3.357 7.5 7.5 7.5h97.288c13.438 0 24.37-10.937 24.37-24.379v-269.398c0-13.437-10.933-24.37-24.37-24.37zm-131.156 384.702 2.062 5.646h-171.81l2.061-5.646c.726-1.988 3.712-4.102 7.818-4.102h152.052c4.105 0 7.091 2.114 7.817 4.102zm-51.245-66.555c-3.112 17.675.989 33.911 11.881 47.453h-88.96c10.891-13.542 14.993-29.778 11.881-47.453zm114.862-277.023h50.782v186.352h-50.782zm-345.704 186.351v-186.351h50.783v186.352h-50.783zm-26.126-203.105c0-5.167 4.204-9.37 9.37-9.37h67.539v11.124h-58.283c-4.142 0-7.5 3.358-7.5 7.5v193.852h-11.126zm437.612 203.105v-193.851c0-4.142-3.357-7.5-7.5-7.5h-58.282v-11.124h67.539c5.167 0 9.37 4.204 9.37 9.37v203.105z" fill="#ffffff" data-original="#000000" style="" class=""/><path d="m247.279 371.963c-4.142 0-7.5 3.357-7.5 7.5s3.358 7.5 7.5 7.5h17.443c4.143 0 7.5-3.357 7.5-7.5s-3.357-7.5-7.5-7.5z" fill="#ffffff" data-original="#000000" style="" class=""/><path d="m374.009 47.952c0-7.353-5.981-13.334-13.334-13.334h-209.349c-7.353 0-13.334 5.982-13.334 13.334v14.138c0 7.353 5.982 13.334 13.334 13.334h209.349c7.353 0 13.334-5.982 13.334-13.334zm-15 12.472h-206.018v-10.806h206.017v10.806z" fill="#ffffff" data-original="#000000" style="" class=""/><path d="m171.622 170.825c18.544 0 33.63-15.086 33.63-33.63s-15.086-33.63-33.63-33.63-33.63 15.086-33.63 33.63 15.086 33.63 33.63 33.63zm0-52.261c10.273 0 18.63 8.357 18.63 18.63s-8.357 18.63-18.63 18.63-18.63-8.357-18.63-18.63 8.357-18.63 18.63-18.63z" fill="#ffffff" data-original="#000000" style="" class=""/><path d="m289.631 137.194c0-18.544-15.087-33.63-33.63-33.63-18.544 0-33.63 15.086-33.63 33.63s15.086 33.63 33.63 33.63c18.543.001 33.63-15.086 33.63-33.63zm-52.261 0c0-10.273 8.357-18.63 18.63-18.63s18.63 8.357 18.63 18.63-8.357 18.63-18.63 18.63-18.63-8.357-18.63-18.63z" fill="#ffffff" data-original="#000000" style="" class=""/><path d="m340.379 103.564c-18.544 0-33.631 15.086-33.631 33.63s15.087 33.63 33.631 33.63 33.63-15.086 33.63-33.63-15.086-33.63-33.63-33.63zm0 52.261c-10.273 0-18.631-8.357-18.631-18.63s8.357-18.63 18.631-18.63c10.272 0 18.63 8.357 18.63 18.63s-8.358 18.63-18.63 18.63z" fill="#ffffff" data-original="#000000" style="" class=""/><path d="m195.009 262.119h-49.517c-4.142 0-7.5 3.357-7.5 7.5s3.358 7.5 7.5 7.5h49.517c4.142 0 7.5-3.357 7.5-7.5s-3.358-7.5-7.5-7.5z" fill="#ffffff" data-original="#000000" style="" class=""/><path d="m280.759 262.119h-49.517c-4.142 0-7.5 3.357-7.5 7.5s3.358 7.5 7.5 7.5h49.517c4.143 0 7.5-3.357 7.5-7.5s-3.358-7.5-7.5-7.5z" fill="#ffffff" data-original="#000000" style="" class=""/><path d="m366.509 262.119h-49.517c-4.143 0-7.5 3.357-7.5 7.5s3.357 7.5 7.5 7.5h49.517c4.143 0 7.5-3.357 7.5-7.5s-3.358-7.5-7.5-7.5z" fill="#ffffff" data-original="#000000" style="" class=""/><path d="m195.009 299.071h-49.517c-4.142 0-7.5 3.357-7.5 7.5s3.358 7.5 7.5 7.5h49.517c4.142 0 7.5-3.357 7.5-7.5s-3.358-7.5-7.5-7.5z" fill="#ffffff" data-original="#000000" style="" class=""/><path d="m280.759 299.071h-49.517c-4.142 0-7.5 3.357-7.5 7.5s3.358 7.5 7.5 7.5h49.517c4.143 0 7.5-3.357 7.5-7.5s-3.358-7.5-7.5-7.5z" fill="#ffffff" data-original="#000000" style="" class=""/><path d="m366.509 299.071h-49.517c-4.143 0-7.5 3.357-7.5 7.5s3.357 7.5 7.5 7.5h49.517c4.143 0 7.5-3.357 7.5-7.5s-3.358-7.5-7.5-7.5z" fill="#ffffff" data-original="#000000" style="" class=""/><path d="m374.009 202.334c0-7.353-5.981-13.335-13.334-13.335h-209.349c-7.353 0-13.334 5.982-13.334 13.335v14.137c0 7.353 5.982 13.334 13.334 13.334h147.929c4.143 0 7.5-3.358 7.5-7.5s-3.357-7.5-7.5-7.5h-146.264v-10.805h206.017v10.807h-29.767c-4.143 0-7.5 3.358-7.5 7.5s3.357 7.5 7.5 7.5h31.433c7.353 0 13.334-5.982 13.334-13.334v-14.139z" fill="#ffffff" data-original="#000000" style="" class=""/></g></g></svg>
