<?xml version="1.0"?>
<svg xmlns="http://www.w3.org/2000/svg" xmlns:xlink="http://www.w3.org/1999/xlink" xmlns:svgjs="http://svgjs.com/svgjs" version="1.1" width="512" height="512" x="0" y="0" viewBox="0 0 512 512" style="enable-background:new 0 0 512 512" xml:space="preserve" class=""><g><g xmlns="http://www.w3.org/2000/svg" id="_22-voice_mesg" data-name="22-voice mesg"><g id="linear_color" data-name="linear color"><path d="m268 448h-24a8 8 0 0 0 0 16h24a8 8 0 0 0 0-16z" fill="#f44438" data-original="#000000" style="" class=""/><path d="m452 248a116.088 116.088 0 0 0 -60-101.558v-98.442a32.036 32.036 0 0 0 -32-32h-208a32.036 32.036 0 0 0 -32 32v416a32.036 32.036 0 0 0 32 32h208a32.036 32.036 0 0 0 32-32v-114.442a116.088 116.088 0 0 0 60-101.558zm-300-216h208a16.019 16.019 0 0 1 16 16v20h-240v-20a16.019 16.019 0 0 1 16-16zm208 448h-208a16.019 16.019 0 0 1 -16-16v-32h240v32a16.019 16.019 0 0 1 -16 16zm16-64h-240v-332h240v55.11a116 116 0 0 0 -132.5 178.883l-11.132 35.62c-2.163 6.177 4.644 12.444 10.607 9.815l36-14.4a116.093 116.093 0 0 0 97.025 7.862zm-40-68a99.776 99.776 0 0 1 -52.177-14.678 8 8 0 0 0 -7.151-.607l-24.016 9.606 7.368-23.576a8 8 0 0 0 -1.445-7.454 100 100 0 1 1 77.421 36.709z" fill="#f44438" data-original="#000000" style="" class=""/><path d="m412 240h-17.754l-10.485-41.94a8 8 0 0 0 -7.761-6.06h-.073a8 8 0 0 0 -7.723 6.2l-15.204 65.89-13.125-73.5a8 8 0 0 0 -15.636-.534l-13.039 52.149-7.556-24.558a8 8 0 0 0 -14.592-1.616l-13.695 23.969h-15.357a8 8 0 0 0 0 16h20a8 8 0 0 0 6.946-4.031l6.838-11.969 10.57 34.351a8 8 0 0 0 15.407-.413l10.939-43.738 13.43 75.2a8 8 0 0 0 7.67 6.6h.2a8 8 0 0 0 7.793-6.2l16.517-71.57 3.927 15.711a8 8 0 0 0 7.763 6.059h24a8 8 0 0 0 0-16z" fill="#f44438" data-original="#000000" style="" class=""/></g></g></g></svg>
